HIERARCHY
ROOT Hips
{
  OFFSET 0 0 0
  CHANNELS 6 Xposition Yposition Zposition Zrotation Xrotation Yrotation
  JOINT Spine
  {
    OFFSET 0 10 0
    CHANNELS 3 Zrotation Xrotation Yrotation
    JOINT Neck
    {
      OFFSET 0 30 0
      CHANNELS 3 Zrotation Xrotation Yrotation
      JOINT Head
      {
        OFFSET 0 8 0
        CHANNELS 3 Zrotation Xrotation Yrotation
        End Site
        {
          OFFSET 0 10 0
        }
      }
    }
    JOINT LeftArm
    {
      OFFSET 15 30 0
      CHANNELS 3 Zrotation Xrotation Yrotation
      JOINT LeftForeArm
      {
        OFFSET 25 0 0
        CHANNELS 3 Zrotation Xrotation Yrotation
        JOINT LeftHand
        {
          OFFSET 25 0 0
          CHANNELS 3 Zrotation Xrotation Yrotation
          End Site
          {
            OFFSET 10 0 0
          }
        }
      }
    }
    JOINT RightArm
    {
      OFFSET -15 30 0
      CHANNELS 3 Zrotation Xrotation Yrotation
      JOINT RightForeArm
      {
        OFFSET -25 0 0
        CHANNELS 3 Zrotation Xrotation Yrotation
        JOINT RightHand
        {
          OFFSET -25 0 0
          CHANNELS 3 Zrotation Xrotation Yrotation
          End Site
          {
            OFFSET -10 0 0
          }
        }
      }
    }
  }
  JOINT LeftUpLeg
  {
    OFFSET 10 -10 0
    CHANNELS 3 Zrotation Xrotation Yrotation
    JOINT LeftLeg
    {
      OFFSET 0 -35 0
      CHANNELS 3 Zrotation Xrotation Yrotation
      JOINT LeftToe
      {
        OFFSET 0 -40 0
        CHANNELS 3 Zrotation Xrotation Yrotation
        JOINT LeftToeEnd
        {
          OFFSET 0 0 0
          CHANNELS 3 Zrotation Xrotation Yrotation
          End Site
          {
            OFFSET 0 0 15
          }
        }
      }
    }
  }
  JOINT RightUpLeg
  {
    OFFSET -10 -10 0
    CHANNELS 3 Zrotation Xrotation Yrotation
    JOINT RightLeg
    {
      OFFSET 0 -35 0
      CHANNELS 3 Zrotation Xrotation Yrotation
      JOINT RightToe
      {
        OFFSET 0 -40 0
        CHANNELS 3 Zrotation Xrotation Yrotation
        JOINT RightToeEnd
        {
          OFFSET 0 0 0
          CHANNELS 3 Zrotation Xrotation Yrotation
          End Site
          {
            OFFSET 0 0 15
          }
        }
      }
    }
  }
}
MOTION
Frames:	15
Frame Time:	0.0333333
60.8326 113.349 -30.986 -0.908578 7.69139 -3.67842 3.11781 12.5513 2.62031 -12.527 -33.129 -6.21046 13.3824 35.9486 -7.81335 -48.7791 11.5116 -31.0121 23.4514 -5.69894 -27.2036 0.893739 10.6355 0.50338 29.1531 -3.79017 37.5145 -31.8288 -13.1128 48.3421 0.424153 -4.48886 -1.08385 0.899654 -1.48509 -5.93797 1.19249 3.60889 0.892695 -18.563 30.7798 28.4689 0 0 -3.18055e-015 1.11116 -4.18744 5.75406 1.60684 8.12044 -1.31281 18.269 35.903 -28.7099 -9.54166e-015 -9.54166e-015 1.59028e-015 
60.9152 116.337 -28.6855 -0.837968 6.84832 -3.38802 1.46112 17.803 2.18671 -11.6557 -36.0039 -6.35941 14.3714 35.7827 -8.02677 -51.8339 13.1666 -30.0856 23.3051 -5.81033 -27.0822 0.943448 12.7584 0.496695 32.5292 -0.67937 34.259 -32.0974 -13.6019 48.8118 0.480942 -3.77508 -1.02232 1.02736 -3.97573 -8.76671 0.996922 3.25452 1.02289 -18.5023 28.3616 29.9034 0 1.27222e-014 -0 0.912412 -4.85433 7.4248 2.2057 3.16321 -1.38232 18.6043 33.8942 -31.136 -1.76556e-031 3.18055e-015 3.18055e-015 
60.9837 118.201 -26.3931 -1.38105 6.08803 -2.8418 1.53479 22.5462 1.5036 -11.8781 -38.1984 -6.8035 14.7842 35.0702 -8.07002 -54.7411 16.8026 -29.3969 23.1042 -5.89433 -26.8164 0.994847 12.6851 0.524439 34.5936 3.97242 31.3656 -31.8803 -13.4817 48.164 0.502182 -3.55338 -0.96582 1.82027 -6.31785 -11.853 0.550742 3.5033 0.964577 -15.5801 18.6752 34.9578 1.59028e-015 3.18055e-015 3.18055e-015 1.10125 -6.29371 12.0772 2.94436 0.168299 -1.00381 18.3558 25.3965 -38.7414 1.59028e-015 -6.36111e-015 3.18055e-015 
61.1094 118.668 -23.7909 -1.81363 5.80741 -2.67238 1.52466 25.0972 1.41106 -12.7233 -38.7076 -7.37017 16.2431 34.1517 -8.91449 -57.6293 21.7081 -27.5317 22.563 -5.78566 -25.8747 1.01003 13.7583 0.566486 37.0719 9.9421 28.3374 -31.2046 -12.8024 46.4831 0.540063 -1.25809 -0.935015 2.54058 -8.85685 -16.3382 0.0595812 3.76068 0.60745 -8.94082 8.54894 36.7379 7.95139e-016 1.59028e-015 -0 1.56344 -9.02686 13.914 3.56887 0.110976 -0.224699 12.6789 14.3063 -41.2585 -2.38542e-015 -3.18055e-015 3.18055e-015 
61.2658 117.684 -20.8844 -2.08932 6.22956 -2.20051 1.52537 25.0862 1.10081 -12.3572 -38.3205 -7.25472 16.6535 34.0447 -9.02086 -61.2371 27.9098 -23.6674 22.8015 -6.04275 -26.2033 0.988503 12.2939 0.648789 40.088 17.5049 24.3587 -30.8851 -12.6099 45.7307 0.532822 0.868521 -0.91349 3.18286 -11.701 -20.8216 -0.0918784 3.82275 0.51283 -5.01672 3.44962 35.5532 9.93923e-017 0 -1.59028e-015 1.73389 -11.621 14.191 3.82936 0.105717 0.184411 6.06334 5.80397 -39.509 9.93923e-016 7.95139e-016 6.36111e-015 
61.3987 115.443 -17.7427 -2.54992 6.3938 -2.2377 1.98007 24.273 1.27423 -12.8093 -38.158 -7.46489 17.619 34.4482 -9.73563 -67.8983 32.9553 -17.224 23.7056 -6.72062 -27.7702 0.949028 10.6194 0.71168 43.9734 25.175 19.3941 -31.055 -13.0367 46.1683 0.538421 0.526064 -0.854287 3.92045 -13.8498 -23.7629 -0.0197874 3.88686 0.641621 -4.15517 2.24284 33.2964 -1.18028e-016 0 -3.18055e-015 1.83464 -13.37 14.4626 3.80244 0.122874 0.0546255 8.83114 8.40438 -38.5689 -1.19271e-015 7.95139e-016 -3.18055e-015 
61.5944 112.049 -14.6961 -2.78476 5.42106 -2.10619 2.32753 24.3104 1.36892 -13.5821 -38.3269 -7.65311 18.9944 34.2406 -10.1066 -75.2632 35.7651 -11.056 24.2344 -7.17602 -28.64 0.966025 9.46882 0.754382 50.9649 29.7167 13.6135 -31.582 -13.7137 47.186 0.537471 3.9083 -0.797506 4.07905 -14.2431 -23.3457 0.276161 3.86258 1.06155 -8.58235 8.52694 33.7839 3.97569e-016 -7.95139e-016 1.59028e-015 1.79547 -13.1394 14.1418 3.60976 0.0950005 -0.25022 14.7684 17.1306 -36.4604 -7.95139e-016 -3.18055e-015 3.18055e-015 
61.8192 107.423 -11.5733 -3.3863 3.32012 -2.04964 3.51456 24.8767 1.03217 -14.3386 -38.4774 -7.88205 19.5633 34.3342 -10.1986 -84.0056 34.6022 -4.58837 24.1758 -7.21346 -28.4035 1.0596 9.82161 0.772113 58.4635 31.8599 8.06339 -31.9814 -14.3691 48.1323 0.497938 3.36621 -0.731172 4.36235 -12.6813 -17.9509 0.855685 3.91967 1.5852 -15.9107 22.3552 30.517 -3.97569e-016 0 -0 2.76952 -10.7904 13.9079 3.08763 0.0890345 -0.893591 17.0968 29.9923 -29.289 7.95139e-016 3.18055e-015 -0 
62.0425 101.503 -8.62598 -3.88221 0.937097 -1.92716 4.4728 25.363 0.623119 -14.4106 -38.1446 -7.96905 19.1121 33.0644 -10.1783 -90.8802 29.4283 -1.38451 22.6696 -6.38617 -25.8177 1.24699 12.3812 0.760812 65.8138 32.635 2.85493 -32.2538 -14.8557 48.8033 0.463225 2.38408 -0.667394 4.35522 -9.90183 -11.9685 1.16603 4.33799 1.47853 -14.9037 31.872 22.0854 -7.95139e-016 3.18055e-015 7.95139e-016 4.21578 -8.19598 10.8188 2.35684 2.11439 -1.14483 12.9338 37.3075 -19.9172 8.82781e-032 -3.18055e-015 1.59028e-015 
62.3714 94.6646 -6.39754 -3.73331 -1.24106 -1.80361 4.374 26.25 0.206031 -14.6106 -37.4239 -7.69927 19.6708 29.4705 -9.56357 -95.1902 23.0799 -0.275896 21.322 -5.70178 -23.7888 1.42421 16.088 0.709176 71.3808 33.7607 0.418735 -31.7712 -14.4055 47.906 0.443314 3.71083 -0.646345 1.77514 -17.4957 -5.83398 1.42419 29.0165 -0.596636 -3.3821 11.4646 5.69025 1.98785e-016 -3.18055e-015 -0 6.28765 -14.8654 4.43418 2.10152 26.4942 0.376215 0.403963 14.1805 -6.63681 5.96354e-016 6.36111e-015 -0 
62.2877 89.0988 -4.53033 -2.50351 -1.99639 -2.1665 1.60411 26.3255 0.475078 -13.2433 -37.7219 -7.24313 19.6152 26.8095 -9.21818 -95.3783 17.7673 -2.11122 19.3341 -4.77393 -20.7333 1.65852 24.0333 0.549704 75.8157 35.5005 1.98901 -29.4989 -12.0255 43.4012 0.488282 8.61851 -0.687257 0.139977 -21.5227 -2.85612 2.20693 42.2613 -1.03683 -0.291037 -7.63445 4.89538 2.39939e-016 -3.18055e-015 -4.03781e-017 5.81268 -20.4049 1.79108 2.64094 42.9635 -0.0563907 -1.72335 -5.05946 -11.81 7.95139e-016 3.18055e-015 -1.59028e-015 
62.1059 85.465 -3.09898 -2.17452 -1.2414 -3.00597 0.0318332 25.9343 1.83089 -13.4863 -37.7072 -6.9031 20.3114 22.0175 -8.98119 -94.2622 16.797 -4.64474 18.6872 -4.37747 -19.647 1.68679 30.8888 0.455652 78.133 35.6782 5.46869 -26.0168 -8.99935 36.6369 0.613548 15.6162 -0.760292 0.355729 -24.0576 -0.014467 2.78204 49.3147 -1.08886 2.04414 -18.9088 6.9182 -2.98177e-016 -7.95139e-016 -3.97569e-016 6.58396 -22.6245 1.80836 3.05939 49.6346 -0.274118 -5.76149 -16.1518 -17.9076 -3.97569e-016 1.59028e-015 -0 
62.2717 83.1877 -2.10874 -1.16267 -0.695045 -2.25393 -1.36841 27.1098 2.6552 -13.8685 -36.6221 -6.31463 20.0299 14.1974 -8.02926 -92.24 20.2792 -8.44546 20.0871 -4.73622 -21.7458 1.43651 26.6721 0.609808 79.238 34.4007 9.90868 -22.2634 -6.51833 29.788 0.804914 25.4854 -0.920406 -0.940772 -29.2223 -0.16278 3.55236 57.8406 -1.23305 1.70094 -22.0323 4.1713 1.98785e-016 7.95139e-016 -3.97569e-016 6.03971 -27.7722 2.07596 3.90761 58.6643 -1.31188 -7.66674 -19.8234 -19.7434 -3.97569e-016 0 -3.18055e-015 
62.3376 82.3646 -1.52845 -1.76795 0.308655 -1.3469 0.261507 27.8226 3.06307 -15.1827 -36.0772 -6.42202 19.2718 9.69585 -7.9692 -89.881 25.8859 -12.3918 21.9516 -5.52238 -24.7252 1.17451 15.8786 0.764606 76.9429 37.6841 12.2099 -21.1661 -6.05398 27.9993 0.891897 28.6399 -0.981849 -0.32017 -31.8372 -0.368058 3.83581 60.9907 -1.22205 1.51197 -23.5612 3.09791 -1.73937e-016 -7.95139e-016 -0 7.00338 -29.7435 2.22883 4.57515 61.1806 -1.94346 -8.75267 -20.7744 -21.5307 -7.95139e-016 3.18055e-015 -3.18055e-015 
62.3223 82.9999 -0.999496 -1.69391 0.600985 -0.69744 0.730405 28.7415 3.18014 -15.0717 -36.368 -6.44352 18.4763 8.4647 -8.04781 -86.8488 28.1123 -16.7731 22.3549 -5.78726 -25.5624 1.0854 11.9516 0.810082 72.8114 43.0848 15.2897 -21.4264 -6.22254 28.4999 0.893226 28.6316 -0.988778 -0.616102 -30.0452 -0.537127 3.6312 58.2321 -1.13611 1.9463 -24.2784 3.73877 3.47873e-016 -7.95139e-016 -3.97569e-016 7.29329 -28.5774 3.0114 4.34156 59.3635 -1.66817 -8.83217 -20.1448 -22.4698 1.19271e-015 0 3.18055e-015 
